<svg xmlns="http://www.w3.org/2000/svg" data-name="Your Icon" viewBox="0 0 86.98 97.0875" x="0px" y="0px"><title>handdrawn_arrow_19</title><path d="M76.07,88.83c-4.29,0-8.95-1.7-11.58-5.24-8,2.86-16.68,2.19-22,1.3C28.74,82.59,11.25,74,7.27,57.29c-2.32-9.72.8-21.1,8.15-29.7,6.16-7.22,15-12.71,26.33-16.34a1.5,1.5,0,0,1,.92,2.86c-10.77,3.46-19.17,8.65-25,15.44C11,37.41,8.09,47.78,10.19,56.59,13.83,71.85,30.14,79.78,43,81.94c4.88.82,12.78,1.45,20.06-1a10.85,10.85,0,0,1,6-13.38,6,6,0,0,1,5.53.18,4.46,4.46,0,0,1,2.09,3.56C76.86,74,75,77,73.23,78.54a26,26,0,0,1-5.84,3.84C69.81,85,74,86.13,77.45,85.76c5-.55,9.65-3.37,13.77-5.87a1.5,1.5,0,1,1,1.55,2.57c-4.39,2.66-9.36,5.66-15,6.28A15.78,15.78,0,0,1,76.07,88.83ZM71.82,70a4.54,4.54,0,0,0-1.66.36,7.88,7.88,0,0,0-4.31,9.48,23.21,23.21,0,0,0,5.41-3.51,6.8,6.8,0,0,0,2.41-4.78,1.51,1.51,0,0,0-.72-1.25A2.09,2.09,0,0,0,71.82,70Z" transform="translate(-6.52 -11.17)"/><text x="0" y="92.67" fill="#000000" font-size="5px" font-weight="bold" font-family="'Helvetica Neue', Helvetica, Arial-Unicode, Arial, Sans-serif">Created by PTWIZ</text><text x="0" y="97.67" fill="#000000" font-size="5px" font-weight="bold" font-family="'Helvetica Neue', Helvetica, Arial-Unicode, Arial, Sans-serif">from the Noun Project</text></svg>