<svg width="59" height="53" viewBox="0 0 59 53" fill="none" xmlns="http://www.w3.org/2000/svg">
<path d="M47.1799 53C44.2699 53 41.1089 51.8397 39.325 49.4235C33.8984 51.3756 28.0106 50.9183 24.402 50.3108C15.0751 48.741 3.21131 42.8781 0.511607 31.473C-1.06209 24.8388 1.05426 17.0716 6.0399 11.2018C10.2183 6.27394 16.2147 2.52684 23.9 0.0492562C24.1573 -0.0340123 24.4369 -0.0110403 24.6773 0.113119C24.9177 0.237278 25.0993 0.452455 25.182 0.711311C25.2648 0.970167 25.242 1.2515 25.1186 1.49342C24.9952 1.73534 24.7813 1.91803 24.5241 2.00129C17.2186 4.36285 11.5207 7.90518 7.56612 12.5396C3.04173 17.9043 1.06783 24.9821 2.4923 30.9952C4.96137 41.4106 16.0247 46.8231 24.7479 48.2974C28.0581 48.857 33.4168 49.287 38.355 47.6148C37.775 45.8563 37.8712 43.9428 38.6247 42.2522C39.3781 40.5615 40.7341 39.2165 42.4249 38.4826C43.014 38.1986 43.6624 38.0616 44.3153 38.083C44.9682 38.1043 45.6064 38.2835 46.176 38.6054C46.5894 38.8655 46.9342 39.2223 47.181 39.6453C47.4279 40.0684 47.5694 40.5452 47.5937 41.0352C47.7158 42.8781 46.4541 44.9257 45.2535 45.9768C44.0563 47.0258 42.7238 47.9074 41.2921 48.5977C42.9336 50.3859 45.7758 51.1572 48.116 50.9046C51.5076 50.5292 54.6617 48.6045 57.4564 46.8982C57.5709 46.8287 57.6978 46.7826 57.83 46.7625C57.9622 46.7424 58.097 46.7487 58.2267 46.781C58.3565 46.8133 58.4786 46.8711 58.5862 46.9509C58.6938 47.0307 58.7847 47.1311 58.8537 47.2463C58.9228 47.3614 58.9686 47.4892 58.9886 47.6222C59.0086 47.7551 59.0023 47.8908 58.9702 48.0214C58.938 48.1519 58.8807 48.2748 58.8013 48.3831C58.722 48.4913 58.6223 48.5828 58.5078 48.6523C55.53 50.4678 52.1587 52.5154 48.333 52.9386C47.95 52.9799 47.5651 53.0004 47.1799 53V53ZM44.297 40.1479C43.9097 40.1578 43.5277 40.2412 43.171 40.3936C41.985 40.9298 41.0338 41.8826 40.4956 43.0737C39.9575 44.2647 39.8693 45.6123 40.2475 46.864C41.5755 46.2412 42.8107 45.4349 43.9172 44.4684C44.3949 44.0641 44.786 43.5666 45.067 43.0058C45.348 42.445 45.513 41.8327 45.5519 41.2059C45.5477 41.0339 45.5008 40.8658 45.4155 40.7168C45.3302 40.5678 45.2092 40.4426 45.0635 40.3527C44.8326 40.2125 44.5667 40.1414 44.297 40.1479V40.1479Z" fill="#05151D"/>
</svg>
