<?xml version="1.0" encoding="UTF-8" standalone="no"?>
<svg width="74px" height="39px" viewBox="0 0 74 39" version="1.1" xmlns="http://www.w3.org/2000/svg" xmlns:xlink="http://www.w3.org/1999/xlink">
    <!-- Generator: Sketch 40.3 (33839) - http://www.bohemiancoding.com/sketch -->
    <title>Page 1 Copy 2</title>
    <desc>Created with Sketch.</desc>
    <defs></defs>
    <g id="Page-1" stroke="none" stroke-width="1" fill="none" fill-rule="evenodd">
        <g id="Page-1-Copy" transform="translate(37.000000, 19.500000) scale(-1, 1) translate(-37.000000, -19.500000) " fill="#050517">
            <path d="M9.355,25.336 C6.793,22.211 4.914,18.801 4.301,14.762 C3.352,8.48 7.152,3.219 12.496,1.137 C16.078,-0.258 19.793,-0.137 23.523,0.434 C26.246,0.852 28.82,1.953 31.578,2.184 C32.578,2.266 33.578,2.289 34.578,2.387 C32.418,2.633 30.277,2.52 28.16,2.004 C24.934,1.219 21.676,0.711 18.344,0.938 C14.043,1.23 10.289,2.648 7.742,6.34 C5.625,9.406 5.324,12.832 5.992,16.402 C6.531,19.262 7.66,21.906 8.957,24.488 C9.098,24.766 9.223,25.051 9.355,25.336 L9.355,25.336 Z" id="Fill-1"></path>
            <path d="M32.664,3.328 C36.902,3.023 40.906,1.195 45.184,1.262 C54.695,1.41 62.461,4.871 67.422,13.406 C67.582,13.688 67.715,13.984 67.848,14.277 C67.871,14.324 67.84,14.398 67.828,14.582 C67.211,13.676 66.684,12.824 66.082,12.031 C62.117,6.84 56.828,3.953 50.402,3.055 C46.539,2.512 42.703,2.852 38.867,3.359 C36.805,3.633 34.738,3.75 32.664,3.328 L32.664,3.328 Z" id="Fill-2"></path>
            <path d="M50.453,24.68 C50.191,26.164 49.578,27.473 48.383,28.387 C47.676,28.93 47.359,29.598 47.203,30.414 C46.852,32.227 47.094,34.035 47.23,35.848 C47.266,36.312 47.555,36.59 47.945,36.809 C48.168,36.934 48.359,37.148 48.348,37.438 C48.336,37.836 47.973,37.75 47.758,37.793 C46.688,38.004 45.621,38.328 44.512,37.973 C43.805,37.746 43.477,37.32 43.664,36.586 C43.992,35.297 43.59,34.082 43.336,32.848 C43.27,32.523 43.059,32.352 42.84,32.16 C40.98,30.531 40.344,28.465 40.688,26.051 C40.75,28.504 41.703,30.449 43.883,31.688 C44.277,31.91 44.098,32.262 44.098,32.555 C44.086,33.816 44.27,35.016 45.152,35.992 C45.383,36.246 45.66,36.605 46.027,36.445 C46.434,36.266 46.355,35.859 46.316,35.438 C46.121,33.297 46.25,31.164 46.656,29.051 C46.703,28.816 46.793,28.605 47,28.488 C48.559,27.602 49.664,26.289 50.453,24.68 L50.453,24.68 Z" id="Fill-3"></path>
            <path d="M10.82,27.293 C11.367,28.684 11.973,30.031 13.004,31.137 C13.203,31.352 13.113,31.629 13.141,31.879 C13.273,33.332 13.77,34.652 14.617,35.828 C14.91,36.238 15.281,36.727 15.883,36.535 C16.457,36.352 16.566,35.758 16.578,35.246 C16.602,33.906 16.285,32.613 15.863,31.352 C15.68,30.797 15.598,30.359 16.152,29.918 C16.633,29.531 16.695,28.852 16.945,28.191 C17.102,29.098 16.637,29.801 16.609,30.57 C16.559,32.035 16.703,33.488 17.027,34.91 C17.18,35.574 17.508,36.18 18.152,36.543 C18.375,36.668 18.602,36.812 18.777,37 C19.016,37.25 19.348,37.547 19.219,37.898 C19.117,38.172 18.707,38.078 18.426,38.129 C17.176,38.352 15.934,38.402 14.676,38.141 C13.887,37.977 13.461,37.688 13.449,36.746 C13.43,34.617 12.934,32.605 11.691,30.797 C10.984,29.781 10.898,28.523 10.82,27.293 L10.82,27.293 Z" id="Fill-4"></path>
            <path d="M58.398,36.219 C59.277,36.527 60.086,37.004 61.051,37.027 C61.605,37.039 62.152,37.039 62.691,36.914 C63.352,36.758 63.738,36.574 63.184,35.785 C62.598,34.953 62.465,33.949 62.695,32.715 C62.984,33.301 63.148,33.742 63.398,34.129 C64.914,36.441 67.164,37.395 69.832,37.508 C70.445,37.535 70.938,37.465 70.852,36.504 C70.766,35.5 71.293,34.566 72.035,33.824 C72.238,33.621 72.488,33.34 72.781,33.527 C73.066,33.711 73.07,34.078 73.043,34.414 C72.871,36.465 71.828,37.695 69.797,38.082 C68.281,38.371 66.75,38.312 65.328,37.637 C64.789,37.379 64.332,37.371 63.766,37.547 C61.734,38.172 59.906,37.789 58.398,36.219 L58.398,36.219 Z" id="Fill-5"></path>
            <path d="M59.809,34.684 C58.211,35.363 56.574,35.699 54.832,35.617 C51.715,35.469 49.82,32.879 49.777,30.219 C49.746,28.219 50.477,26.434 51.609,24.797 C51.348,26.277 50.895,27.719 50.895,29.242 C50.895,32.711 52.863,34.742 56.34,34.832 C57.5,34.863 58.652,34.746 59.809,34.684 L59.809,34.684 Z" id="Fill-6"></path>
            <path d="M67.086,23.883 C67.227,23.016 67.402,22.234 67.293,21.434 C67.129,20.227 66.664,19.953 65.535,20.402 C65.02,20.605 64.531,20.859 64.094,21.199 C63.051,22 62.797,23.004 63.477,24.309 C62.055,23.277 61.805,21.766 62.762,20.555 C63.727,19.336 65.098,18.75 66.484,18.184 C66.773,18.066 66.895,18.211 67.055,18.379 C68.371,19.742 68.418,22.289 67.086,23.883 L67.086,23.883 Z" id="Fill-7"></path>
            <path d="M4.199,9.234 C3.039,11.961 3.73,14.449 4.055,16.938 C4.281,18.664 3.73,19.672 2.406,19.82 C1.734,19.895 1.051,19.832 0.125,19.832 C0.879,19.383 1.578,19.25 1.93,18.652 C1.984,18.559 2.59,18.211 1.816,18.203 C1.531,18.199 1.828,17.961 1.891,17.891 C2.355,17.367 2.422,16.742 2.434,16.078 C2.477,14.195 2.648,12.324 3.367,10.555 C3.52,10.168 3.656,9.762 4.199,9.234 L4.199,9.234 Z" id="Fill-8"></path>
            <path d="M71.711,32.523 C71.203,32.145 71.043,31.105 69.945,31.723 C70.684,31.254 70.578,30.801 70.305,30.203 C69.734,28.973 69.738,27.707 70.293,26.441 C70.734,25.434 71.168,24.426 71.434,23.348 C72.016,20.969 71.031,19.18 69.281,17.598 C71.387,18.277 72.84,20.797 72.48,23.031 C72.309,24.094 72.039,25.148 71.508,26.074 C70.469,27.887 70.633,29.664 71.441,31.477 C71.586,31.801 71.684,32.141 71.801,32.473 C71.766,32.488 71.738,32.504 71.711,32.523 L71.711,32.523 Z" id="Fill-9"></path>
            <path d="M19.461,25.297 C18.789,26.031 19.277,26.465 20.164,27.012 C21.227,27.668 22.762,27.758 24.133,28.051 C27.258,28.723 30.625,28.691 34.098,28.301 C35.055,28.191 36.016,28.102 36.984,27.957 C34.879,27.922 32.738,28.207 30.621,28.098 C28.34,27.984 26.211,27.723 24.258,27.23 C22.371,26.754 20.879,26.059 19.461,25.297 L19.461,25.297 Z" id="Fill-10"></path>
            <path d="M66.672,29.352 C66.453,28.277 65.812,27.57 64.766,27.141 C65.664,26.926 66.285,27.039 66.656,27.504 C67.121,28.078 66.969,28.699 66.672,29.352 L66.672,29.352 Z" id="Fill-11"></path>
            <path d="M71.797,32.469 C72.004,32.641 72.098,32.871 72.16,33.203 C71.414,33.129 70.699,33.176 70.039,33.801 C70.32,32.805 71.07,32.742 71.711,32.52 C71.738,32.504 71.766,32.488 71.797,32.469 L71.797,32.469 Z" id="Fill-12"></path>
        </g>
    </g>
</svg>