<?xml version="1.0" encoding="UTF-8"?>
<svg width="65px" height="88px" viewBox="0 0 65 88" version="1.1" xmlns="http://www.w3.org/2000/svg" xmlns:xlink="http://www.w3.org/1999/xlink">
    <!-- Generator: Sketch 50.2 (55047) - http://www.bohemiancoding.com/sketch -->
    <title>noun_140083_cc</title>
    <desc>Created with Sketch.</desc>
    <defs></defs>
    <g id="OG-derpin" stroke="none" stroke-width="1" fill="none" fill-rule="evenodd">
        <g id="noun_140083_cc" fill="#000000" fill-rule="nonzero">
            <path d="M55.659,22.059 L55.459,3.332 L47.054,13.874 C44.033,12.004 40.763,10.824 37.332,10.431 C36.485,10.333 35.622,10.284 34.768,10.284 C31.95,10.284 29.165,10.821 26.472,11.802 L18.836,0.552 L16.651,17.714 C8.59,24.708 2.573,35.982 1.115,48.681 C-1.237,69.169 10.038,84.961 28.533,87.084 C29.809,87.23 31.096,87.305 32.359,87.305 C49.092,87.305 61.784,74.682 63.941,55.893 C65.139,45.453 63.017,34.508 58.117,25.866 C57.349,24.513 56.524,23.25 55.659,22.059 Z M54.489,6.152 L54.645,20.727 C52.609,18.18 50.344,16.063 47.9,14.417 L54.489,6.152 Z M19.494,3.302 L25.513,12.17 C22.81,13.272 20.21,14.826 17.779,16.771 L19.494,3.302 Z M62.947,55.779 C60.851,74.038 48.558,86.305 32.359,86.305 C31.135,86.305 29.886,86.233 28.648,86.091 C10.738,84.035 -0.175,68.698 2.109,48.796 C4.443,28.463 19.4,11.284 34.769,11.284 C35.585,11.284 36.409,11.331 37.219,11.424 C40.461,11.796 43.556,12.905 46.426,14.663 L46.422,14.668 L46.886,14.967 C49.679,16.77 52.226,19.175 54.456,22.113 L54.464,22.12 C55.452,23.428 56.384,24.838 57.246,26.359 C62.043,34.821 64.121,45.544 62.947,55.779 Z" id="Shape"></path>
            <path d="M35.148,55.015 C41.676,55.015 46.986,49.704 46.986,43.177 C46.986,36.65 41.675,31.339 35.148,31.339 C28.621,31.339 23.31,36.649 23.31,43.177 C23.31,49.705 28.621,55.015 35.148,55.015 Z M35.148,32.338 C41.124,32.338 45.986,37.2 45.986,43.176 C45.986,49.152 41.124,54.014 35.148,54.014 C29.172,54.014 24.31,49.153 24.31,43.177 C24.31,37.201 29.172,32.338 35.148,32.338 Z" id="Shape"></path>
            <path d="M30.926,43.677 C31.952,43.677 32.787,42.842 32.787,41.816 C32.787,40.79 31.952,39.954 30.926,39.954 C29.9,39.954 29.064,40.789 29.064,41.816 C29.064,42.843 29.9,43.677 30.926,43.677 Z M30.926,40.954 C31.401,40.954 31.787,41.341 31.787,41.816 C31.787,42.291 31.401,42.677 30.926,42.677 C30.451,42.677 30.064,42.291 30.064,41.816 C30.064,41.341 30.451,40.954 30.926,40.954 Z" id="Shape"></path>
            <path d="M38.945,45.039 C39.971,45.039 40.806,44.204 40.806,43.177 C40.806,42.15 39.971,41.316 38.945,41.316 C37.919,41.316 37.083,42.151 37.083,43.177 C37.083,44.203 37.919,45.039 38.945,45.039 Z M38.945,42.315 C39.42,42.315 39.806,42.701 39.806,43.176 C39.806,43.651 39.42,44.038 38.945,44.038 C38.47,44.038 38.083,43.651 38.083,43.176 C38.083,42.701 38.47,42.315 38.945,42.315 Z" id="Shape"></path>
            <path d="M47.779,52.915 C47.521,52.824 47.233,52.959 47.141,53.219 C46.217,55.827 43.966,57.799 40.803,58.77 C37.627,59.746 33.916,59.595 30.336,58.355 C30.29,58.315 30.238,58.281 30.177,58.26 C23.028,55.726 18.635,49.646 20.385,44.706 C20.477,44.446 20.341,44.16 20.081,44.068 C19.819,43.976 19.535,44.112 19.443,44.372 C17.522,49.795 22.114,56.39 29.69,59.142 C29.74,59.191 29.799,59.231 29.869,59.256 C32.033,60.023 34.249,60.409 36.387,60.409 C38.024,60.409 39.614,60.182 41.097,59.727 C44.57,58.66 47.052,56.468 48.084,53.554 C48.176,53.292 48.04,53.007 47.779,52.915 Z" id="Shape"></path>
            <rect id="Rectangle-path" transform="translate(30.927504, 26.618527) rotate(6.038395) translate(-30.927504, -26.618527) " x="26.9323095" y="26.1185029" width="7.99038866" height="1.00004864"></rect>
            <rect id="Rectangle-path" transform="translate(43.955345, 27.989646) rotate(7.002066) translate(-43.955345, -27.989646) " x="40.2749995" y="27.4896666" width="7.36069032" height="1"></rect>
        </g>
    </g>
</svg>