<?xml version="1.0" standalone="no"?>
<!DOCTYPE svg PUBLIC "-//W3C//DTD SVG 20010904//EN"
 "http://www.w3.org/TR/2001/REC-SVG-20010904/DTD/svg10.dtd">
<svg version="1.0" xmlns="http://www.w3.org/2000/svg"
 width="1184.000000pt" height="1184.000000pt" viewBox="0 0 1184.000000 1184.000000"
 preserveAspectRatio="xMidYMid meet">
<metadata>
Created by potrace 1.11, written by Peter Selinger 2001-2013
</metadata>
<g transform="translate(0.000000,1184.000000) scale(0.100000,-0.100000)"
fill="#000000" stroke="none">
<path d="M2867 9034 c-1 -1 -48 -5 -105 -9 -57 -3 -113 -8 -125 -10 -12 -2
-42 -6 -67 -9 -25 -3 -56 -8 -70 -11 -14 -3 -40 -8 -59 -11 -52 -9 -71 -13
-91 -19 -10 -3 -28 -8 -40 -10 -96 -18 -303 -89 -428 -146 -34 -16 -65 -28
-68 -28 -4 0 -10 -3 -13 -8 -3 -4 -28 -19 -56 -33 -27 -14 -52 -28 -55 -31 -3
-3 -20 -14 -39 -24 -39 -20 -109 -67 -196 -134 -250 -191 -460 -447 -595 -724
-57 -120 -124 -299 -135 -366 -3 -19 -8 -37 -10 -41 -5 -8 -15 -56 -21 -100
-3 -19 -7 -46 -9 -60 -23 -124 -23 -427 0 -565 3 -16 8 -46 11 -65 3 -19 8
-46 10 -60 4 -23 27 -124 41 -180 3 -14 7 -30 9 -37 24 -117 139 -414 232
-598 69 -136 180 -328 194 -333 4 -2 8 -8 8 -13 0 -18 237 -346 289 -399 17
-17 17 -18 -31 80 -79 163 -178 372 -178 376 0 2 -11 27 -24 56 -69 150 -214
558 -230 645 -3 16 -10 45 -16 67 -6 21 -13 48 -16 60 -2 11 -8 44 -14 71 -18
89 -20 99 -25 135 -3 19 -7 46 -10 60 -12 57 -19 177 -19 360 -1 197 4 280 25
380 6 30 15 75 20 100 17 87 82 266 134 375 122 250 329 510 529 663 34 26 63
50 64 54 2 4 7 8 11 8 4 0 45 25 91 55 45 30 86 52 91 50 4 -3 9 -1 11 3 4 10
118 72 132 72 6 0 25 7 41 16 73 38 352 123 455 139 19 2 55 9 80 14 25 5 68
12 95 15 28 4 66 9 85 11 186 25 626 25 845 1 22 -3 65 -7 95 -10 30 -4 66 -8
80 -11 14 -3 45 -8 70 -11 93 -12 136 -19 310 -54 80 -16 213 -45 295 -64 147
-33 200 -44 260 -52 17 -2 44 -6 60 -8 96 -15 241 -28 275 -26 14 1 32 1 40 1
34 -2 209 0 260 3 30 2 70 4 89 5 47 1 31 14 -22 17 -79 6 -222 14 -302 19
-96 5 -246 23 -295 35 -19 5 -54 11 -78 14 -24 3 -48 8 -53 12 -6 3 -25 8 -42
11 -30 4 -291 70 -507 128 -102 27 -302 71 -366 80 -21 3 -48 7 -59 10 -11 2
-49 7 -85 11 -36 3 -68 8 -72 11 -5 2 -34 6 -65 8 -32 3 -83 7 -113 10 -145
14 -523 27 -533 19z"/>
<path d="M7049 8836 c-2 -2 -46 -7 -97 -10 -51 -4 -103 -9 -115 -12 -12 -3
-42 -7 -67 -9 -25 -2 -81 -11 -124 -20 -44 -8 -93 -18 -110 -21 -17 -3 -56
-11 -86 -19 -30 -7 -68 -16 -85 -18 -16 -3 -50 -10 -75 -17 -25 -7 -54 -14
-65 -16 -11 -2 -139 -30 -285 -64 -146 -33 -278 -62 -295 -65 -16 -2 -41 -7
-55 -9 -13 -3 -42 -8 -65 -11 -22 -3 -51 -8 -65 -10 -14 -3 -47 -8 -75 -11
-27 -3 -59 -7 -70 -9 -11 -1 -33 -3 -50 -5 l-30 -2 35 -8 c37 -8 95 -16 195
-27 126 -13 493 -6 595 11 14 3 54 7 90 10 36 4 76 8 90 11 14 3 50 7 80 11
30 3 71 7 90 10 50 6 122 14 255 29 31 3 132 12 240 20 342 27 848 22 1050
-11 17 -3 46 -6 65 -8 38 -4 102 -13 140 -21 14 -3 39 -7 55 -9 45 -7 98 -16
115 -21 8 -2 29 -7 45 -10 48 -8 65 -12 155 -35 47 -12 92 -23 100 -25 22 -5
322 -104 345 -114 11 -5 61 -26 110 -46 84 -35 293 -136 360 -173 122 -69 360
-226 428 -282 7 -6 50 -40 96 -78 152 -121 383 -353 501 -501 19 -24 42 -52
50 -61 8 -9 32 -38 52 -65 21 -28 41 -55 46 -60 5 -6 59 -86 121 -178 61 -92
113 -167 115 -167 2 0 2 13 1 28 -8 101 -303 549 -534 812 -88 100 -262 274
-345 345 -33 28 -64 55 -70 60 -6 6 -49 40 -96 76 -384 297 -827 511 -1344
649 -135 36 -147 39 -196 46 -19 2 -44 7 -55 11 -11 3 -30 8 -42 10 -59 8 -70
10 -101 17 -18 4 -49 9 -70 11 -20 2 -48 6 -62 9 -14 2 -47 8 -75 11 -27 4
-61 8 -75 10 -14 2 -68 7 -120 10 -52 4 -104 9 -115 11 -25 5 -501 14 -506 10z"/>
<path d="M622 7506 c-18 -24 -44 -67 -58 -95 -38 -79 -101 -278 -119 -377 -10
-49 -18 -96 -20 -104 -1 -8 -6 -40 -9 -70 -16 -137 -21 -220 -26 -395 -5 -137
-31 -221 -92 -290 -33 -39 -32 -47 6 -47 49 0 52 -24 10 -70 -58 -65 -80 -81
-189 -136 -55 -29 -98 -52 -95 -53 27 -8 347 -3 390 6 158 33 233 142 232 339
0 86 -2 118 -17 211 -3 22 -8 56 -10 75 -2 19 -4 35 -5 35 -1 0 -3 9 -4 20 -9
66 -28 204 -33 225 -9 50 -12 386 -3 440 18 108 22 126 36 180 9 30 17 60 18
65 2 6 4 13 5 18 0 4 8 21 16 37 23 44 5 36 -33 -14z"/>
<path d="M11100 6214 c0 -2 28 -33 63 -67 66 -67 126 -142 176 -222 32 -50 85
-179 96 -231 28 -138 25 -264 -10 -395 -14 -52 -27 -101 -29 -109 -9 -35 -77
-212 -111 -290 -36 -83 -72 -177 -81 -212 -2 -10 -7 -28 -10 -40 -3 -13 -7
-64 -9 -113 -5 -107 13 -202 56 -307 51 -123 50 -166 -10 -233 -14 -16 -18
-24 -9 -17 24 19 93 17 122 -2 14 -9 38 -32 53 -53 15 -20 38 -47 50 -59 25
-27 22 -29 -48 -50 -53 -16 -115 -50 -136 -75 -18 -23 -54 -91 -50 -95 2 -2
16 5 32 17 51 41 130 66 212 68 42 1 80 4 85 7 9 6 -9 48 -45 102 -15 23 -26
42 -23 42 2 0 -14 46 -36 103 -46 118 -85 235 -92 281 -3 17 -8 42 -11 56 -21
94 3 327 41 402 8 15 14 30 13 33 -2 10 74 160 85 167 6 4 7 8 2 8 -4 0 -2 10
6 23 19 29 72 185 83 242 1 6 3 12 4 15 4 8 8 32 15 80 4 25 10 54 13 65 19
61 4 234 -31 360 -12 41 -90 200 -106 215 -3 3 -17 21 -30 40 -36 52 -129 141
-186 177 -56 37 -144 78 -144 67z"/>
<path d="M10635 6130 c-11 -5 -54 -23 -95 -40 -322 -135 -527 -311 -576 -492
-26 -97 -11 -195 42 -286 31 -53 126 -152 146 -152 9 0 9 3 2 8 -9 6 -36 64
-36 76 0 3 -5 25 -12 48 -25 93 2 199 71 283 81 97 297 214 424 230 76 9 130
-38 156 -136 10 -41 12 -232 2 -294 -5 -33 -12 -75 -14 -94 -3 -18 -8 -37 -11
-42 -3 -5 -1 -9 5 -9 6 0 16 10 22 23 7 12 15 24 18 27 17 14 72 144 89 210
14 55 19 102 17 185 -1 60 -5 119 -8 130 -3 11 -9 34 -13 50 -4 17 -16 50 -27
75 -11 25 -21 48 -21 51 -3 21 -97 132 -123 144 -35 17 -31 17 -58 5z"/>
<path d="M8050 5052 c0 -5 -23 -47 -51 -93 -106 -174 -242 -319 -402 -426 -54
-36 -105 -76 -112 -87 -13 -20 -32 -100 -41 -169 -2 -17 -6 -45 -8 -62 -43
-273 -50 -580 -22 -890 7 -77 -36 -129 -97 -118 -61 12 -176 172 -221 305 -32
98 -49 271 -35 365 7 53 -8 72 -113 142 -94 62 -236 200 -261 251 -4 8 -16 29
-27 45 -40 61 -117 252 -115 285 1 8 -2 22 -6 30 -6 13 -19 100 -23 157 -3 42
-16 36 -17 -8 -7 -241 14 -371 87 -528 30 -66 88 -167 104 -181 3 -3 25 -30
50 -60 25 -30 61 -68 80 -85 70 -60 100 -99 111 -139 23 -90 28 -112 34 -146
3 -19 10 -53 15 -75 28 -125 31 -231 10 -360 -15 -91 -15 -103 -1 -135 29 -63
88 -100 194 -120 62 -11 204 -10 262 3 20 4 86 18 115 23 8 2 31 6 50 9 19 4
46 9 60 11 49 9 60 16 61 37 3 55 -11 87 -51 110 -39 23 -91 74 -106 103 -17
31 -20 61 -41 361 -9 128 -8 394 2 443 3 19 6 42 7 50 1 35 32 159 51 205 34
82 71 126 185 225 128 110 214 255 272 458 9 34 14 65 9 68 -5 3 -9 1 -9 -4z"/>
<path d="M8235 5041 c-4 -14 -18 -36 -31 -50 -13 -14 -24 -29 -24 -33 0 -4
-13 -29 -28 -55 -23 -40 -61 -121 -102 -218 -5 -11 -14 -38 -20 -60 -6 -22
-14 -47 -17 -55 -8 -20 -10 -28 -17 -70 -4 -19 -9 -42 -11 -50 -18 -66 -24
-268 -11 -355 34 -233 137 -422 308 -566 85 -70 245 -151 328 -165 110 -18
154 -22 263 -21 123 0 301 21 397 46 80 21 204 62 245 81 l40 19 -95 -5 c-52
-2 -117 -7 -145 -10 -68 -7 -372 -7 -415 1 -19 3 -48 8 -65 11 -16 3 -42 7
-56 9 -55 10 -153 46 -228 85 -198 103 -338 301 -386 545 -25 129 -24 361 4
510 6 33 14 74 17 90 3 17 9 47 15 68 6 21 12 50 14 65 2 15 11 62 20 105 16
75 16 127 0 78z"/>
<path d="M3089 4958 c-15 -21 -23 -45 -22 -72 1 -36 7 -47 52 -88 101 -93 235
-151 429 -188 59 -11 130 -25 157 -30 28 -5 64 -12 80 -15 17 -3 66 -12 110
-21 44 -8 91 -17 105 -19 14 -2 43 -6 65 -10 22 -3 56 -8 75 -10 19 -3 51 -7
70 -10 246 -33 808 -33 1075 0 17 2 68 7 114 10 46 4 93 9 105 11 21 4 98 13
166 20 88 8 146 17 153 24 9 8 -135 6 -373 -7 -190 -9 -580 -9 -700 1 -144 12
-160 14 -225 20 -33 4 -80 9 -105 11 -25 3 -56 7 -70 10 -14 3 -45 8 -70 10
-25 3 -52 7 -60 8 -8 2 -28 6 -45 10 -16 3 -48 9 -70 12 -22 3 -78 15 -125 26
-47 11 -94 22 -105 25 -77 15 -375 117 -412 140 -12 8 -27 14 -34 14 -6 0 -78
34 -160 75 -82 41 -151 75 -154 75 -2 0 -14 -14 -26 -32z"/>
<path d="M10457 4714 c-1 -2 -20 -4 -41 -6 -20 -1 -39 -5 -41 -8 -2 -3 20 -18
50 -33 76 -41 159 -122 194 -192 17 -33 31 -66 31 -73 0 -7 5 -21 12 -31 11
-18 13 -17 25 17 17 48 32 152 22 152 -5 0 -6 6 -3 13 8 22 -58 110 -102 134
-33 19 -136 38 -147 27z"/>
<path d="M1736 4612 c5 -111 14 -176 39 -278 23 -89 53 -156 110 -244 107
-166 204 -405 230 -567 3 -20 8 -45 10 -57 9 -35 14 -86 20 -191 12 -200 13
-208 47 -258 30 -42 102 -72 225 -93 57 -10 350 -13 403 -4 30 6 80 12 110 16
154 16 154 16 142 100 -4 23 -91 109 -152 148 -36 24 -79 57 -97 75 -50 52
-92 150 -109 251 -2 8 -5 27 -8 43 -10 48 -24 142 -24 157 0 8 -3 26 -6 40
-15 62 -23 421 -11 460 3 10 7 27 9 37 2 10 11 47 21 81 28 111 27 243 -2 151
-8 -24 -15 -48 -17 -54 -18 -72 -43 -119 -92 -170 -70 -75 -80 -107 -57 -190
8 -27 16 -57 18 -65 2 -8 13 -44 24 -80 58 -188 71 -268 76 -455 3 -93 0 -141
-10 -169 -33 -93 -119 -130 -199 -86 -45 24 -120 120 -176 225 -18 33 -35 65
-40 70 -4 6 -12 24 -18 40 -6 17 -19 53 -30 81 -17 46 -29 89 -48 174 -10 43
-13 73 -19 149 -6 76 -20 110 -68 162 -43 45 -130 182 -179 280 -64 129 -108
228 -108 244 0 8 -4 16 -8 19 -5 3 -7 -16 -6 -42z"/>
<path d="M5848 4563 c7 -3 16 -2 19 1 4 3 -2 6 -13 5 -11 0 -14 -3 -6 -6z"/>
<path d="M10024 3765 c-9 -48 -10 -177 -2 -235 10 -65 33 -124 83 -211 66
-112 60 -140 -40 -174 -57 -19 -139 -28 -245 -28 -130 0 -167 10 -410 102 -69
26 -69 26 -35 -5 99 -92 195 -151 305 -188 147 -49 301 -52 465 -9 163 42 205
41 340 -13 61 -24 133 -48 160 -53 28 -6 64 -13 80 -17 53 -10 262 -13 327 -4
129 19 146 22 208 39 125 36 238 113 309 211 31 43 74 125 76 145 0 6 3 15 7
20 24 40 43 239 26 285 -11 32 -45 58 -70 54 -36 -5 -105 -68 -158 -144 -13
-19 -27 -37 -30 -40 -10 -8 -57 -112 -70 -154 -7 -22 -14 -83 -15 -135 -3
-165 -26 -182 -230 -167 -90 6 -139 13 -212 30 -10 2 -31 7 -48 11 -122 28
-275 96 -388 172 -102 69 -287 257 -287 292 0 6 -4 11 -9 11 -5 0 -37 55 -70
121 l-60 121 -7 -37z"/>
</g>
</svg>
