<?xml version="1.0" encoding="UTF-8" standalone="no"?>
<svg width="71px" height="30px" viewBox="0 0 71 30" version="1.1" xmlns="http://www.w3.org/2000/svg" xmlns:xlink="http://www.w3.org/1999/xlink">
    <!-- Generator: Sketch 40.3 (33839) - http://www.bohemiancoding.com/sketch -->
    <title>Page 1</title>
    <desc>Created with Sketch.</desc>
    <defs></defs>
    <g id="Page-1" stroke="none" stroke-width="1" fill="none" fill-rule="evenodd">
        <path d="M68.0956433,10.7987968 C64.2166433,4.8187968 55.8496433,3.4197968 49.4936433,4.4237968 C46.9976433,3.9357968 48.1426433,3.1737968 41.6036433,2.1507968 C39.5016433,1.8267968 36.7556433,1.5487968 33.6776433,1.4197968 C28.8066433,-0.435203198 22.8566433,0.158796802 19.5206433,2.0767968 C9.69664332,3.5337968 0.724643319,7.4667968 0.0206433186,16.4127968 C-0.557356681,23.8187968 11.1536433,26.4087968 16.1536433,27.5527968 C27.5526433,30.1667968 35.2826433,30.1157968 46.9076433,29.9167968 C55.6386433,29.7637968 78.7086433,27.1587968 68.0956433,10.7987968 L68.0956433,10.7987968 Z M29.3766433,2.0217968 C30.1856433,1.6777968 31.0286433,1.6307968 31.8606433,1.7327968 C32.7006433,1.8267968 33.4506433,2.2717968 34.1656433,2.7057968 C35.5956433,3.5647968 36.7906433,4.8807968 37.2206433,6.4587968 C37.2316433,6.4987968 37.2086433,6.5337968 37.1696433,6.5447968 C37.1386433,6.5527968 37.1036433,6.5417968 37.0916433,6.5097968 L37.0876433,6.5017968 C36.7166433,5.8267968 36.1736433,5.2637968 35.5796433,4.8107968 C34.9976433,4.3417968 34.3456433,3.9747968 33.6576433,3.7087968 C32.9706433,3.4277968 32.2276433,3.3697968 31.5406433,3.0997968 C30.8416433,2.8377968 30.1266433,2.5877968 29.3686433,2.1627968 C29.3296433,2.1427968 29.3176433,2.0957968 29.3376433,2.0567968 C29.3456433,2.0377968 29.3566433,2.0257968 29.3766433,2.0217968 L29.3766433,2.0217968 Z M30.7636433,13.3347968 C30.7206433,13.3347968 30.6776433,13.3307968 30.6306433,13.3267968 C30.6426433,13.3147968 30.6656433,13.2987968 30.6696433,13.2837968 C30.6816433,13.2637968 30.6856433,13.2447968 30.6926433,13.2247968 L30.6966433,13.2247968 C30.7206433,13.2637968 30.7396433,13.3027968 30.7636433,13.3347968 L30.7636433,13.3347968 Z M48.9316433,28.3147968 C33.7436433,30.2207968 29.9936433,29.7597968 15.0246433,26.3307968 C11.0246433,25.4127968 7.32964332,24.0997968 4.09964332,21.4557968 C-3.98635668,14.8307968 6.74364332,7.0337968 12.5716433,5.0137968 C14.1856433,4.4557968 15.8336433,4.0097968 17.4976433,3.6237968 C13.6226433,6.8497968 7.88464332,9.9237968 14.1346433,13.6857968 C20.1816433,17.3267968 31.9426433,17.1547968 38.5016433,14.9517968 C39.3216433,14.6777968 39.5136433,14.6897968 40.2706433,14.3537968 C45.6536433,11.7167968 42.1066433,7.5647968 37.5056433,3.6387968 C36.9316433,3.1467968 36.2986433,2.7327968 35.6426433,2.3537968 C37.3646433,2.4867968 39.0836433,2.6667968 40.7786433,2.9237968 C47.8726433,4.0377968 41.2866433,5.1507968 48.4746433,5.2597968 C55.3886433,5.3657968 60.2906433,5.3347968 65.6496433,9.9987968 C68.7356433,12.6857968 69.4706433,16.5847968 67.8106433,20.3067968 C65.0756433,26.4557968 54.6146433,27.6037968 48.9316433,28.3147968 L48.9316433,28.3147968 Z" fill="#000000"></path>
    </g>
</svg>